<svg xmlns="http://www.w3.org/2000/svg" viewBox="0 0 709.72 825.09">
  <defs>
    <style>
      .cls-1 {
        fill: none;
      }

      .cls-2 {
        fill: #b98f5c;
      }

      .cls-3 {
        fill: #d3af71;
      }

      .cls-4 {
        fill: #f6e5c3;
      }

      .cls-5 {
        fill: #596a63;
      }

      .cls-6 {
        fill: #231f20;
      }

      .cls-7 {
        fill: #eed09d;
      }

      .cls-8 {
        fill: #684a3c;
      }

      .cls-9 {
        fill: #41b224;
      }

      .cls-10 {
        fill: #5b7954;
      }

      .cls-11 {
        fill: #ffca5f;
      }

      .cls-12 {
        fill: #bb5327;
      }

      .cls-13 {
        fill: #70726c;
      }
    </style>
  </defs>
  <title>a</title>
  <path class="cls-1" d="M97.94,714.22L354,252,453.22,73,807.67,897.56h0L446.56,500Z" transform="translate(-97.94 -72.97)"/>
  <polygon class="cls-2" points="318.89 66.67 426.42 166.52 225.57 235.12 318.89 66.67"/>
  <polygon class="cls-3" points="318.89 66.67 355.27 1 426.42 166.52 318.89 66.67"/>
  <polygon class="cls-4" points="226.06 235.03 348.61 427.53 402.06 235.03 226.06 235.03"/>
  <polygon class="cls-3" points="348.61 427.03 499.15 334.71 402.06 234.53 348.61 427.03"/>
  <polygon class="cls-3" points="159.04 354.79 137.84 557.03 47.06 557.03 159.04 354.79"/>
  <polygon class="cls-5" points="138.06 557.03 47.06 557.03 0 641.75 138.06 557.03"/>
  <polygon class="cls-6" points="138.06 556.53 229.31 381.28 159.04 354.29 138.06 556.53"/>
  <polygon class="cls-7" points="229.31 381.28 249.84 487.73 138.06 556.53 229.31 381.28"/>
  <polygon class="cls-8" points="249.84 487.73 348.61 427.03 229.31 381.28 249.84 487.73"/>
  <polygon class="cls-9" points="348.61 427.03 542.05 434.51 499.15 334.71 348.61 427.03"/>
  <path class="cls-9" d="M327.25,454.25" transform="translate(-97.94 -72.97)"/>
  <polygon class="cls-4" points="229.31 381.28 226.06 234.53 159.04 354.29 229.31 381.28"/>
  <polygon class="cls-3" points="226.07 235.12 229.31 381.28 348.61 427.03 226.07 235.12"/>
  <polygon class="cls-10" points="348.61 427.03 589.23 544.27 542.05 434.51 348.61 427.03"/>
  <polygon class="cls-11" points="589.23 544.27 480.97 572.75 348.61 427.03 589.23 544.27"/>
  <polygon class="cls-4" points="589.23 544.27 617.63 723.21 480.97 572.75 589.23 544.27"/>
  <polygon class="cls-12" points="618.06 724.03 666.06 724.03 589.23 544.77 618.06 724.03"/>
  <polygon class="cls-13" points="666.06 724.03 618.06 724.03 709.72 825.09 666.06 724.03"/>
  <polygon class="cls-8" points="226.06 235.03 426.42 166.52 401.84 235.03 226.06 235.03"/>
  <polygon class="cls-5" points="426.42 166.52 499.15 334.71 401.84 235.03 426.42 166.52"/>
</svg>
