<svg xmlns="http://www.w3.org/2000/svg" viewBox="0 0 124 123.75"><title>question</title><path d="M51.19,78.31l.34-15.49L60,32.21c-.33-4.63-15.47,4.66-18.56-5.42-1.44-2.88-4.32-8.65-2.88-8.65,13-13,44.67-11.53,43.23,11.53,0,13-13,23.06-17.29,34.59L62.43,78.19Zm-3.09,19.9c0-5.32,6.06-7.57,8.63-9.06,6.81-3.95,8.49,3.74,8.49,9.06,0,5-3.31,8.92-8.63,8.92C51.54,107.13,48.09,103.25,48.09,98.21Z" transform="translate(2 1.75)" /><path d="M54.19,78.31c.11-4.92-.06-9.93.33-14.83.09-1.19-.13.42,0-.12s.27-1,.42-1.51c.79-2.62,1.46-5.28,2.19-7.92l4.84-17.49c.94-3.39,2-7.28-2.58-8.46-5.45-1.41-12.2,4-15.33-2.71-.61-1.3-1.65-4.86-2.6-5.72l-.26-.89-1.09,2.06c.05.06,1.86-1.64,2-1.74a26.71,26.71,0,0,1,9-4.66c6.53-2,14.37-2.17,20.5,1.2,6.81,3.74,8.5,11.57,6.61,18.74-2.79,10.6-12.28,17.83-16.07,28-1.74,4.66-1.83,10.25-2.56,15.17l2.89-2.2-11.25.12c-3.86,0-3.87,6,0,6l11.25-.12A3,3,0,0,0,65.32,79c.75-5,.72-11,2.81-15.67,4.33-9.7,13-16.95,15.81-27.46C88.21,19.7,77.2,7.42,61.19,7a35.55,35.55,0,0,0-21.27,6.15c-2.33,1.66-5,3.3-4.65,6.45.32,3.3,2.64,7.86,4.41,10.62a10,10,0,0,0,7.58,4.43c2.07.24,8.29.47,10.13-.78.78-.53.53-3.08-.5-1.65a9.87,9.87,0,0,0-.74,2.67l-2.76,10C51.84,50.42,49.62,56.22,48.64,62c-.89,5.25-.34,11-.46,16.33C48.1,82.17,54.1,82.17,54.19,78.31Z" transform="translate(2 1.75)"/><path d="M51.09,98.21c.22-3.24,3.88-4.75,6.38-6.05,1-.5,2.1-1.45,3.14-.85s1.24,2.87,1.4,3.87c.45,3,.4,6.68-2.59,8.3-4.18,2.26-8.13-1-8.33-5.27-.18-3.84-6.18-3.87-6,0,.34,7.35,6.1,13.08,13.72,11.7,7.24-1.31,10-8.05,9.21-14.75-.64-5.51-3.8-11.65-10.36-9.7-5.85,1.74-12.13,6.32-12.56,12.75C44.83,102.07,50.84,102.05,51.09,98.21Z" transform="translate(2 1.75)"/><ellipse cx="62" cy="61.87" rx="60" ry="59.87" style="fill:none;stroke:#fff;stroke-miterlimit:10;stroke-width:4px"/></svg>
